<svg xmlns="http://www.w3.org/2000/svg" width="39" height="40" fill="none" viewBox="0 0 39 40"><path fill="#000" d="M14.193 36.774h-5.16a.645.645 0 0 0 0 1.29h5.16a.645.645 0 1 0 0-1.29"/><path fill="#000" d="M36.452 12.258H23.226v-10A2.26 2.26 0 0 0 20.968 0H2.258A2.26 2.26 0 0 0 0 2.258v35.484A2.26 2.26 0 0 0 2.258 40h18.71a2.26 2.26 0 0 0 2.258-2.258v-9.355h13.226a2.26 2.26 0 0 0 2.258-2.258V14.516a2.26 2.26 0 0 0-2.258-2.258M14.657 1.29l-.322 1.29H8.89L8.57 1.29zm7.279 36.452a.97.97 0 0 1-.968.968H2.258a.97.97 0 0 1-.968-.968V2.258a.97.97 0 0 1 .968-.968h4.98l.523 2.092a.645.645 0 0 0 .626.489h6.452a.645.645 0 0 0 .625-.489l.524-2.092h4.98a.97.97 0 0 1 .968.968zm1.29-15.806h1.935v2.58h-1.935zm14.193 4.193a.97.97 0 0 1-.967.968H23.226v-1.29h2.58a.645.645 0 0 0 .646-.646v-3.87a.645.645 0 0 0-.646-.646h-2.58V18.71h14.193zm0-8.71H23.226v-1.29h14.193zm0-2.58H23.226v-1.29h13.226a.97.97 0 0 1 .967.967z"/><path fill="#000" d="M35.484 20.645h-5.807a.645.645 0 0 0 0 1.29h5.807a.645.645 0 1 0 0-1.29M35.484 22.58h-5.807a.646.646 0 0 0 0 1.291h5.807a.645.645 0 0 0 0-1.29M35.484 24.516h-2.58a.645.645 0 1 0 0 1.29h2.58a.645.645 0 0 0 0-1.29M11.613 12.258A7.742 7.742 0 1 0 19.355 20a7.75 7.75 0 0 0-7.742-7.742m0 14.194A6.452 6.452 0 1 1 18.065 20a6.46 6.46 0 0 1-6.452 6.452"/><path fill="#000" d="m15.028 17.608-4.12 4.12-2.134-1.599A.645.645 0 1 0 8 21.161l2.58 1.936a.645.645 0 0 0 .844-.06l4.516-4.516a.646.646 0 0 0-.912-.913"/></svg>